HIERARCHY
ROOT Hips
{
	OFFSET	0.00	0.00	0.00
	CHANNELS 6 Xposition Yposition Zposition Zrotation Xrotation Yrotation
	JOINT LeftUpLeg
	{
		OFFSET	 0.126116	-0.014019	-0.065224
		CHANNELS 3 Zrotation Xrotation Yrotation
		JOINT LeftLeg
		{
			OFFSET	 0.000000	 0.000000	 0.569914
			CHANNELS 3 Zrotation Xrotation Yrotation
			JOINT LeftFoot
			{
				OFFSET	 0.000000	 0.000000	 0.544423
				CHANNELS 3 Zrotation Xrotation Yrotation
				JOINT LeftToeBase
				{
					OFFSET	 0.000000	 0.000000	 0.207117
					CHANNELS 3 Zrotation Xrotation Yrotation
					End Site
					{
						OFFSET	 0.000000	 0.000000	 0.207117
					}
				}
			}
		}
	}
	JOINT RightUpLeg
	{
		OFFSET	-0.124023	-0.008373	-0.065224
		CHANNELS 3 Zrotation Xrotation Yrotation
		JOINT RightLeg
		{
			OFFSET	 0.000000	 0.000000	 0.570047
			CHANNELS 3 Zrotation Xrotation Yrotation
			JOINT RightFoot
			{
				OFFSET	 0.000000	 0.000000	 0.544354
				CHANNELS 3 Zrotation Xrotation Yrotation
				JOINT RightToeBase
				{
					OFFSET	 0.000000	 0.000000	 0.207540
					CHANNELS 3 Zrotation Xrotation Yrotation
					End Site
					{
						OFFSET	 0.000000	 0.000000	 0.207540
					}
				}
			}
		}
	}
	JOINT Spine
	{
		OFFSET	 0.000184	-0.007763	 0.117403
		CHANNELS 3 Zrotation Xrotation Yrotation
		JOINT Spine1
		{
			OFFSET	 0.000000	 0.000000	 0.137269
			CHANNELS 3 Zrotation Xrotation Yrotation
			JOINT Spine2
			{
				OFFSET	 0.000000	 0.000000	 0.156879
				CHANNELS 3 Zrotation Xrotation Yrotation
				JOINT LeftShoulder
				{
					OFFSET	 0.080501	-0.002496	 0.160144
					CHANNELS 3 Zrotation Xrotation Yrotation
					JOINT LeftArm
					{
						OFFSET	 0.000000	 0.000000	 0.164363
						CHANNELS 3 Zrotation Xrotation Yrotation
						JOINT LeftForeArm
						{
							OFFSET	 0.000000	 0.000000	 0.364576
							CHANNELS 3 Zrotation Xrotation Yrotation
							JOINT LeftHand
							{
								OFFSET	 0.000000	 0.000000	 0.360812
								CHANNELS 3 Zrotation Xrotation Yrotation
								JOINT LeftHandIndex1
								{
									OFFSET	 0.000000	 0.000000	 0.086006
									CHANNELS 3 Zrotation Xrotation Yrotation
									JOINT LeftHandIndex2
									{
										OFFSET	 0.000000	 0.000000	 0.047236
										CHANNELS 3 Zrotation Xrotation Yrotation
										JOINT LeftHandIndex3
										{
											OFFSET	-0.004284	-0.000551	 0.038166
											CHANNELS 3 Zrotation Xrotation Yrotation
											End Site
											{
												OFFSET	-0.004284	-0.000551	 0.038166
											}
										}
									}
								}
							}
						}
					}
				}
				JOINT Neck
				{
					OFFSET	 0.000000	 0.000000	 0.176489
					CHANNELS 3 Zrotation Xrotation Yrotation
					JOINT Head
					{
						OFFSET	 0.000000	-0.001747	 0.077940
						CHANNELS 3 Zrotation Xrotation Yrotation
						End Site
						{
							OFFSET	 0.000000	-0.001747	 0.077940
						}
					}
				}
				JOINT RightShoulder
				{
					OFFSET	-0.080363	 0.000306	 0.159706
					CHANNELS 3 Zrotation Xrotation Yrotation
					JOINT RightArm
					{
						OFFSET	 0.000000	 0.000000	 0.164196
						CHANNELS 3 Zrotation Xrotation Yrotation
						JOINT RightForeArm
						{
							OFFSET	 0.000000	 0.000000	 0.365611
							CHANNELS 3 Zrotation Xrotation Yrotation
							JOINT RightHand
							{
								OFFSET	 0.000000	 0.000000	 0.360648
								CHANNELS 3 Zrotation Xrotation Yrotation
								JOINT RightHandIndex1
								{
									OFFSET	 0.000000	 0.000000	 0.069977
									CHANNELS 3 Zrotation Xrotation Yrotation
									JOINT RightHandIndex2
									{
										OFFSET	 0.000000	 0.000000	 0.052305
										CHANNELS 3 Zrotation Xrotation Yrotation
										JOINT RightHandIndex3
										{
											OFFSET	 0.009002	-0.000782	 0.042196
											CHANNELS 3 Zrotation Xrotation Yrotation
											End Site
											{
												OFFSET	 0.009002	-0.000782	 0.042196
											}
										}
									}
								}
							}
						}
					}
				}
			}
		}
	}
}
MOTION
Frames:    7
Frame Time: 0.03333334
 0.125352	 2.986264	 0.325888	 3.215547	-2.124598	 0.254275	 6.642283	-2.871278	-178.727000	-2.356176	-35.901780	 1.369092	 7.907493	 89.696100	-6.715796	-2.376065	 30.444420	-0.043656	 1.498907	-29.014740	 179.422500	 22.520160	-73.670070	 25.996940	 174.206900	 89.513820	-166.927400	 2.378972	 29.595780	 0.026329	 2.119901	 4.311661	 1.029342	 4.378542	-2.061982	 1.374139	 6.554850	-4.920463	 0.713814	-91.800190	 78.007600	 178.922600	 35.773940	 63.799380	-47.280970	-15.936890	 0.597014	-34.791470	 3.372288	-4.951067	-5.385062	-3.812334	 37.924440	-2.927599	-2.450526	 36.184240	 0.754587	-1.378229	 35.397820	-2.634230	-0.312292	 4.031432	-1.779408	 2.042895	-11.941980	-1.098521	 89.794460	 78.818520	 179.542600	-41.859410	 71.342100	 44.042910	 8.803141	-3.166706	 31.714680	-12.687280	-6.036539	 9.623724	 6.437017	 35.671460	-0.771858	 2.830251	 35.756010	-7.813440	-2.350882	 35.473990	 5.254307
 0.131339	 2.939908	 0.322905	 3.435516	-1.861227	-0.388278	 6.090180	 0.661158	-177.704200	-2.923655	-33.073190	 0.981357	 40.167600	 89.937450	-39.512170	-2.376439	 30.374900	-0.042108	 1.906271	-31.891260	 179.678000	 15.555960	-67.707070	 18.759400	-177.066400	 88.796340	-175.370300	 2.377704	 29.847110	 0.031863	 1.677884	 4.283308	 1.754695	 3.626943	-2.195639	 1.299408	 5.820098	-5.062910	 0.640836	-91.779800	 78.456650	 178.818400	 35.256260	 62.613030	-48.355910	-15.499580	 0.575606	-36.572810	 3.525435	-4.957601	-5.383662	-3.812334	 37.924440	-2.927599	-2.450526	 36.184240	 0.754587	-1.378229	 35.397820	-2.634230	-0.347419	 4.130697	-2.243109	 1.996650	-12.219330	-0.883786	 89.785960	 78.373670	 179.475900	-41.691910	 71.454770	 43.139190	 8.958059	-3.137556	 32.842120	-12.379300	-6.027175	 9.629523	 6.437017	 35.671460	-0.771858	 2.830251	 35.756010	-7.813440	-2.350882	 35.473990	 5.254307
 0.136509	 2.893653	 0.320917	 3.611120	-1.485751	-0.763621	 6.000135	 4.846743	-177.075200	-3.357512	-28.536700	 0.946645	 10.759880	 89.532700	-10.135560	-2.372620	 31.065340	-0.057533	 2.123884	-33.877820	 179.767000	 11.301150	-60.565320	 13.919040	-168.448600	 89.194240	 176.329900	 2.380387	 29.309040	 0.020032	 1.275170	 4.140172	 2.216946	 2.921910	-2.299731	 1.228672	 5.052123	-5.162582	 0.560521	-91.764330	 78.742800	 178.760200	 34.814050	 61.588440	-49.321450	-15.324070	 0.668988	-37.874420	 3.430862	-4.948910	-5.385344	-3.812334	 37.924440	-2.927599	-2.450526	 36.184240	 0.754587	-1.378229	 35.397820	-2.634230	-0.367885	 4.266795	-2.601678	 1.874286	-12.464870	-0.840480	 89.779440	 78.089970	 179.448600	-41.603660	 71.603650	 42.576770	 9.094415	-3.099803	 33.410960	-12.205690	-6.022713	 9.632117	 6.437017	 35.671460	-0.771858	 2.830251	 35.756010	-7.813440	-2.350882	 35.473990	 5.254307
 0.140812	 2.844097	 0.319294	 3.754791	-1.017990	-0.947253	 6.665559	 9.909866	-177.055100	-3.550328	-22.018900	 1.281820	 5.949701	 87.946140	-4.432897	-2.362992	 32.636060	-0.093250	 2.457581	-35.071600	 179.688100	 8.462199	-52.587750	 10.462270	-146.686500	 89.522760	 154.893500	 2.388158	 27.560220	-0.017824	 0.927147	 3.856988	 2.464017	 2.268949	-2.439840	 1.198216	 4.275661	-5.218953	 0.476375	-91.757030	 78.871460	 178.752300	 34.479910	 60.765170	-50.161900	-15.249930	 0.782360	-38.704490	 3.287713	-4.966272	-5.382520	-3.812334	 37.924440	-2.927599	-2.450526	 36.184240	 0.754587	-1.378229	 35.397820	-2.634230	-0.298032	 4.379897	-2.902282	 1.732314	-12.618490	-0.856307	 89.776530	 77.962160	 179.453900	-41.484490	 71.829650	 42.215300	 9.213756	-3.071779	 33.331880	-12.210050	-6.023965	 9.631391	 6.437017	 35.671460	-0.771858	 2.830251	 35.756010	-7.813440	-2.350882	 35.473990	 5.254307
 0.145853	 2.791237	 0.316652	 3.972908	-0.747742	-1.183340	 8.261413	 17.585670	-176.724200	-4.098555	-11.621770	 1.556174	 3.394242	 84.000310	 0.393121	-2.344842	 35.134850	-0.152124	 2.976113	-35.787840	 179.759400	 5.828740	-45.056970	 7.556943	-151.354600	 89.550190	 159.281700	 2.384668	 28.386440	-0.000055	 0.573106	 3.574276	 2.690681	 1.633887	-2.541805	 1.208333	 3.522688	-5.220515	 0.392472	-91.752820	 78.941390	 178.736300	 34.306530	 60.341860	-50.876960	-15.291450	 0.827558	-38.938100	 3.246906	-4.964249	-5.382928	-3.812334	 37.924440	-2.927599	-2.450526	 36.184240	 0.754587	-1.378229	 35.397820	-2.634230	-0.180272	 4.395902	-3.140175	 1.631156	-12.606800	-0.816613	 89.774910	 77.893510	 179.447700	-41.331390	 72.131580	 42.055540	 9.251783	-3.065604	 32.446260	-12.458460	-6.031690	 9.626840	 6.437017	 35.671460	-0.771858	 2.830251	 35.756010	-7.813440	-2.350882	 35.473990	 5.254307
 0.148093	 2.742720	 0.314706	 4.364216	-0.831944	-1.292293	 8.285989	 19.977530	-177.176100	-3.847549	-11.615580	 1.602459	 3.847986	 84.140840	 0.147187	-2.317089	 38.220670	-0.228918	 3.264771	-35.748770	 179.762000	 3.786806	-39.940830	 5.544573	-167.681500	 89.256900	 174.859000	 2.374347	 30.481010	 0.045929	 0.119059	 3.602896	 2.660571	 0.964517	-2.567411	 1.185298	 2.797916	-5.170190	 0.310468	-91.754460	 78.904680	 178.709900	 34.650060	 60.266020	-51.827480	-15.331640	 0.802536	-38.554260	 3.305317	-4.967485	-5.382249	-3.812334	 37.924440	-2.927599	-2.450526	 36.184240	 0.754587	-1.378229	 35.397820	-2.634230	-0.113899	 4.296116	-3.245822	 1.545350	-12.429030	-0.672027	 89.774770	 77.925540	 179.373200	-41.056520	 72.488840	 41.896550	 9.261118	-3.066881	 31.153890	-12.846300	-6.043592	 9.619448	 6.437017	 35.671460	-0.771858	 2.830251	 35.756010	-7.813440	-2.350882	 35.473990	 5.254307
 0.150009	 2.688737	 0.312933	 4.860757	-0.924988	-1.268639	 8.401279	 22.646750	-178.094300	-3.118824	-11.599400	 1.717049	 4.662132	 83.447370	-0.075645	-2.284683	 41.134690	-0.306469	 3.128241	-35.124560	 179.574700	 2.931112	-37.423040	 4.588552	-177.816800	 89.076770	-175.560600	 2.368149	 31.564150	 0.070282	-0.421633	 3.694679	 2.403407	 0.226985	-2.508053	 1.103937	 2.010240	-5.060501	 0.221135	-91.760730	 78.788920	 178.672200	 35.304840	 60.575680	-52.573790	-15.347750	 0.689777	-37.514130	 3.502023	-4.951177	-5.384863	-3.812334	 37.924440	-2.927599	-2.450526	 36.184240	 0.754587	-1.378229	 35.397820	-2.634230	-0.113298	 4.184922	-3.228784	 1.423001	-12.162500	-0.429653	 89.777200	 78.039310	 179.295900	-40.280510	 72.955220	 41.127860	 9.334704	-3.054986	 29.717540	-13.283740	-6.059057	 9.609375	 6.437017	 35.671460	-0.771858	 2.830251	 35.756010	-7.813440	-2.350882	 35.473990	 5.254307
